<svg xmlns="http://www.w3.org/2000/svg" xmlns:xlink="http://www.w3.org/1999/xlink" width="500" zoomAndPan="magnify" viewBox="0 0 375 374.999991" height="500" preserveAspectRatio="xMidYMid meet" version="1.0"><defs><g/><clipPath id="7d3cbae747"><path d="M 302 136 L 333 136 L 333 168 L 302 168 Z M 302 136 " clip-rule="nonzero"/></clipPath><clipPath id="fcbdcef9ad"><path d="M 296.613281 141.617188 L 317.957031 121.890625 L 347.179688 153.507812 L 325.835938 173.234375 Z M 296.613281 141.617188 " clip-rule="nonzero"/></clipPath><clipPath id="1c78990391"><path d="M 296.613281 141.617188 L 317.957031 121.890625 L 347.179688 153.507812 L 325.835938 173.234375 Z M 296.613281 141.617188 " clip-rule="nonzero"/></clipPath><clipPath id="f1d581f508"><path d="M 318 122 L 349 122 L 349 154 L 318 154 Z M 318 122 " clip-rule="nonzero"/></clipPath><clipPath id="02db9a333c"><path d="M 311.929688 127.460938 L 333.269531 107.738281 L 362.496094 139.355469 L 341.152344 159.082031 Z M 311.929688 127.460938 " clip-rule="nonzero"/></clipPath><clipPath id="ca48cb9c44"><path d="M 311.929688 127.460938 L 333.269531 107.738281 L 362.496094 139.355469 L 341.152344 159.082031 Z M 311.929688 127.460938 " clip-rule="nonzero"/></clipPath></defs><rect x="-37.5" width="450" fill="#ffffff" y="-37.499999" height="449.999989" fill-opacity="1"/><rect x="-37.5" width="450" fill="#373643" y="-37.499999" height="449.999989" fill-opacity="1"/><g clip-path="url(#7d3cbae747)"><g clip-path="url(#fcbdcef9ad)"><g clip-path="url(#1c78990391)"><path fill="#18cb96" d="M 332.789062 138.089844 L 306.921875 136.941406 C 301.925781 136.71875 301.082031 146.449219 307 146.609375 L 323.097656 147.046875 L 321.867188 163.242188 C 321.496094 168.175781 331.113281 168.695312 331.386719 163.683594 Z M 332.789062 138.089844 " fill-opacity="1" fill-rule="nonzero"/></g></g></g><g clip-path="url(#f1d581f508)"><g clip-path="url(#02db9a333c)"><g clip-path="url(#ca48cb9c44)"><path fill="#18cb96" d="M 348.105469 123.933594 L 322.234375 122.785156 C 317.238281 122.5625 316.394531 132.296875 322.316406 132.457031 L 338.414062 132.894531 L 337.183594 149.089844 C 336.808594 154.019531 346.425781 154.542969 346.703125 149.53125 Z M 348.105469 123.933594 " fill-opacity="1" fill-rule="nonzero"/></g></g></g><g fill="#ffffff" fill-opacity="1"><g transform="translate(62.598468, 175.571277)"><g><path d="M 0.40625 -8.8125 C 0.132812 -9.9375 0.40625 -10.828125 1.21875 -11.484375 C 2.039062 -12.148438 2.957031 -12.484375 3.96875 -12.484375 C 4.75 -12.484375 5.4375 -12.296875 6.03125 -11.921875 C 6.632812 -11.554688 7.015625 -10.984375 7.171875 -10.203125 C 7.597656 -8.960938 8.40625 -8 9.59375 -7.3125 C 10.78125 -6.632812 12.113281 -6.171875 13.59375 -5.921875 C 15.070312 -5.671875 16.453125 -5.546875 17.734375 -5.546875 C 18.742188 -5.546875 19.851562 -5.625 21.0625 -5.78125 C 22.269531 -5.9375 23.414062 -6.21875 24.5 -6.625 C 25.59375 -7.03125 26.488281 -7.601562 27.1875 -8.34375 C 27.882812 -9.082031 28.234375 -10.035156 28.234375 -11.203125 C 28.234375 -12.441406 27.71875 -13.351562 26.6875 -13.9375 C 25.65625 -14.519531 24.34375 -14.9375 22.75 -15.1875 C 21.15625 -15.445312 19.484375 -15.632812 17.734375 -15.75 C 15.753906 -15.90625 13.757812 -16.140625 11.75 -16.453125 C 9.75 -16.765625 7.921875 -17.269531 6.265625 -17.96875 C 4.617188 -18.664062 3.289062 -19.6875 2.28125 -21.03125 C 1.269531 -22.375 0.765625 -24.15625 0.765625 -26.375 C 0.765625 -28.351562 1.269531 -30.0625 2.28125 -31.5 C 3.289062 -32.945312 4.609375 -34.125 6.234375 -35.03125 C 7.867188 -35.945312 9.640625 -36.628906 11.546875 -37.078125 C 13.453125 -37.523438 15.320312 -37.75 17.15625 -37.75 C 19.175781 -37.75 21.296875 -37.515625 23.515625 -37.046875 C 25.734375 -36.578125 27.765625 -35.75 29.609375 -34.5625 C 31.453125 -33.382812 32.820312 -31.722656 33.71875 -29.578125 C 34.03125 -28.492188 33.804688 -27.585938 33.046875 -26.859375 C 32.285156 -26.140625 31.398438 -25.78125 30.390625 -25.78125 C 29.773438 -25.78125 29.179688 -25.925781 28.609375 -26.21875 C 28.046875 -26.507812 27.648438 -26.910156 27.421875 -27.421875 C 26.953125 -28.628906 26.132812 -29.523438 24.96875 -30.109375 C 23.800781 -30.691406 22.515625 -31.066406 21.109375 -31.234375 C 19.710938 -31.410156 18.414062 -31.5 17.21875 -31.5 C 16.4375 -31.5 15.507812 -31.421875 14.4375 -31.265625 C 13.363281 -31.109375 12.320312 -30.835938 11.3125 -30.453125 C 10.300781 -30.066406 9.457031 -29.53125 8.78125 -28.84375 C 8.101562 -28.164062 7.765625 -27.320312 7.765625 -26.3125 C 7.765625 -25.070312 8.25 -24.140625 9.21875 -23.515625 C 10.1875 -22.890625 11.476562 -22.457031 13.09375 -22.21875 C 14.707031 -21.988281 16.46875 -21.796875 18.375 -21.640625 C 20.394531 -21.453125 22.40625 -21.226562 24.40625 -20.96875 C 26.414062 -20.71875 28.238281 -20.269531 29.875 -19.625 C 31.507812 -18.988281 32.8125 -18.019531 33.78125 -16.71875 C 34.75 -15.414062 35.234375 -13.597656 35.234375 -11.265625 C 35.234375 -8.929688 34.675781 -7.003906 33.5625 -5.484375 C 32.457031 -3.960938 31.007812 -2.753906 29.21875 -1.859375 C 27.4375 -0.972656 25.535156 -0.347656 23.515625 0.015625 C 21.492188 0.390625 19.566406 0.578125 17.734375 0.578125 C 16.222656 0.578125 14.570312 0.429688 12.78125 0.140625 C 10.988281 -0.148438 9.242188 -0.65625 7.546875 -1.375 C 5.859375 -2.09375 4.375 -3.050781 3.09375 -4.25 C 1.8125 -5.457031 0.914062 -6.976562 0.40625 -8.8125 Z M 0.40625 -8.8125 "/></g></g></g><g fill="#ffffff" fill-opacity="1"><g transform="translate(98.070815, 175.571277)"><g><path d="M 16.046875 -5.546875 C 16.941406 -6.046875 17.75 -6.21875 18.46875 -6.0625 C 19.1875 -5.90625 19.769531 -5.566406 20.21875 -5.046875 C 20.664062 -4.523438 20.890625 -3.910156 20.890625 -3.203125 C 20.890625 -2.703125 20.734375 -2.195312 20.421875 -1.6875 C 20.109375 -1.1875 19.625 -0.757812 18.96875 -0.40625 C 18.101562 0.0625 17.320312 0.34375 16.625 0.4375 C 15.925781 0.53125 15.109375 0.578125 14.171875 0.578125 C 11.648438 0.578125 9.707031 0.0546875 8.34375 -0.984375 C 6.976562 -2.035156 6.039062 -3.394531 5.53125 -5.0625 C 5.03125 -6.738281 4.78125 -8.515625 4.78125 -10.390625 L 4.78125 -24.15625 L 2.5625 -24.15625 C 1.476562 -24.15625 0.671875 -24.445312 0.140625 -25.03125 C -0.378906 -25.613281 -0.640625 -26.234375 -0.640625 -26.890625 C -0.640625 -27.597656 -0.367188 -28.242188 0.171875 -28.828125 C 0.710938 -29.410156 1.507812 -29.703125 2.5625 -29.703125 L 4.78125 -29.703125 L 4.78125 -34.71875 C 4.78125 -35.726562 5.109375 -36.484375 5.765625 -36.984375 C 6.429688 -37.492188 7.191406 -37.75 8.046875 -37.75 C 8.867188 -37.75 9.628906 -37.492188 10.328125 -36.984375 C 11.023438 -36.484375 11.375 -35.726562 11.375 -34.71875 L 11.375 -29.703125 L 15.921875 -29.703125 C 16.929688 -29.703125 17.707031 -29.410156 18.25 -28.828125 C 18.800781 -28.242188 19.078125 -27.597656 19.078125 -26.890625 C 19.078125 -26.191406 18.800781 -25.5625 18.25 -25 C 17.707031 -24.4375 16.929688 -24.15625 15.921875 -24.15625 L 11.375 -24.15625 L 11.375 -10.390625 C 11.375 -9.535156 11.429688 -8.707031 11.546875 -7.90625 C 11.671875 -7.101562 11.9375 -6.441406 12.34375 -5.921875 C 12.75 -5.398438 13.359375 -5.140625 14.171875 -5.140625 C 14.484375 -5.140625 14.820312 -5.1875 15.1875 -5.28125 C 15.5625 -5.375 15.847656 -5.460938 16.046875 -5.546875 Z M 16.046875 -5.546875 "/></g></g></g><g fill="#ffffff" fill-opacity="1"><g transform="translate(118.315448, 175.571277)"><g><path d="M 27.125 -29.703125 C 28.132812 -29.703125 28.941406 -29.414062 29.546875 -28.84375 C 30.148438 -28.28125 30.453125 -27.550781 30.453125 -26.65625 L 30.453125 -3.03125 C 30.453125 -2.132812 30.148438 -1.40625 29.546875 -0.84375 C 28.941406 -0.28125 28.132812 0 27.125 0 C 26.15625 0 25.394531 -0.222656 24.84375 -0.671875 C 24.300781 -1.117188 23.972656 -1.710938 23.859375 -2.453125 C 22.535156 -1.398438 21.054688 -0.628906 19.421875 -0.140625 C 17.796875 0.335938 16.242188 0.578125 14.765625 0.578125 C 11.960938 0.578125 9.539062 -0.0625 7.5 -1.34375 C 5.457031 -2.625 3.890625 -4.429688 2.796875 -6.765625 C 1.710938 -9.097656 1.171875 -11.820312 1.171875 -14.9375 C 1.171875 -17.96875 1.769531 -20.628906 2.96875 -22.921875 C 4.175781 -25.222656 5.859375 -27.023438 8.015625 -28.328125 C 10.179688 -29.628906 12.679688 -30.28125 15.515625 -30.28125 C 16.765625 -30.28125 18.144531 -30.046875 19.65625 -29.578125 C 21.175781 -29.109375 22.578125 -28.367188 23.859375 -27.359375 C 24.015625 -28.054688 24.363281 -28.617188 24.90625 -29.046875 C 25.457031 -29.484375 26.195312 -29.703125 27.125 -29.703125 Z M 15.46875 -5.3125 C 17.175781 -5.3125 18.828125 -5.6875 20.421875 -6.4375 C 22.015625 -7.195312 23.140625 -8.316406 23.796875 -9.796875 L 23.796875 -19.890625 C 23.066406 -21.328125 21.960938 -22.4375 20.484375 -23.21875 C 19.003906 -24 17.503906 -24.390625 15.984375 -24.390625 C 13.535156 -24.390625 11.5625 -23.492188 10.0625 -21.703125 C 8.5625 -19.910156 7.8125 -17.632812 7.8125 -14.875 C 7.8125 -12 8.507812 -9.6875 9.90625 -7.9375 C 11.3125 -6.1875 13.164062 -5.3125 15.46875 -5.3125 Z M 15.46875 -5.3125 "/></g></g></g><g fill="#ffffff" fill-opacity="1"><g transform="translate(152.037476, 175.571277)"><g><path d="M 15.75 -29.703125 C 16.800781 -29.703125 17.632812 -29.476562 18.25 -29.03125 C 18.875 -28.582031 19.1875 -27.851562 19.1875 -26.84375 C 19.1875 -25.90625 18.875 -25.160156 18.25 -24.609375 C 17.632812 -24.066406 16.800781 -23.796875 15.75 -23.796875 C 13.300781 -23.796875 11.582031 -22.921875 10.59375 -21.171875 C 9.601562 -19.421875 9.109375 -17.050781 9.109375 -14.0625 L 9.109375 -2.96875 C 9.109375 -2.113281 8.796875 -1.40625 8.171875 -0.84375 C 7.546875 -0.28125 6.785156 0 5.890625 0 C 4.878906 0 4.0625 -0.28125 3.4375 -0.84375 C 2.820312 -1.40625 2.515625 -2.113281 2.515625 -2.96875 L 2.515625 -26.71875 C 2.515625 -27.65625 2.875 -28.382812 3.59375 -28.90625 C 4.3125 -29.4375 5.078125 -29.703125 5.890625 -29.703125 C 6.710938 -29.703125 7.453125 -29.445312 8.109375 -28.9375 C 8.773438 -28.4375 9.109375 -27.695312 9.109375 -26.71875 L 9.109375 -26.375 C 9.960938 -27.5 10.953125 -28.332031 12.078125 -28.875 C 13.203125 -29.425781 14.425781 -29.703125 15.75 -29.703125 Z M 15.75 -29.703125 "/></g></g></g><g fill="#ffffff" fill-opacity="1"><g transform="translate(169.481611, 175.571277)"><g><path d="M 16.046875 -5.546875 C 16.941406 -6.046875 17.75 -6.21875 18.46875 -6.0625 C 19.1875 -5.90625 19.769531 -5.566406 20.21875 -5.046875 C 20.664062 -4.523438 20.890625 -3.910156 20.890625 -3.203125 C 20.890625 -2.703125 20.734375 -2.195312 20.421875 -1.6875 C 20.109375 -1.1875 19.625 -0.757812 18.96875 -0.40625 C 18.101562 0.0625 17.320312 0.34375 16.625 0.4375 C 15.925781 0.53125 15.109375 0.578125 14.171875 0.578125 C 11.648438 0.578125 9.707031 0.0546875 8.34375 -0.984375 C 6.976562 -2.035156 6.039062 -3.394531 5.53125 -5.0625 C 5.03125 -6.738281 4.78125 -8.515625 4.78125 -10.390625 L 4.78125 -24.15625 L 2.5625 -24.15625 C 1.476562 -24.15625 0.671875 -24.445312 0.140625 -25.03125 C -0.378906 -25.613281 -0.640625 -26.234375 -0.640625 -26.890625 C -0.640625 -27.597656 -0.367188 -28.242188 0.171875 -28.828125 C 0.710938 -29.410156 1.507812 -29.703125 2.5625 -29.703125 L 4.78125 -29.703125 L 4.78125 -34.71875 C 4.78125 -35.726562 5.109375 -36.484375 5.765625 -36.984375 C 6.429688 -37.492188 7.191406 -37.75 8.046875 -37.75 C 8.867188 -37.75 9.628906 -37.492188 10.328125 -36.984375 C 11.023438 -36.484375 11.375 -35.726562 11.375 -34.71875 L 11.375 -29.703125 L 15.921875 -29.703125 C 16.929688 -29.703125 17.707031 -29.410156 18.25 -28.828125 C 18.800781 -28.242188 19.078125 -27.597656 19.078125 -26.890625 C 19.078125 -26.191406 18.800781 -25.5625 18.25 -25 C 17.707031 -24.4375 16.929688 -24.15625 15.921875 -24.15625 L 11.375 -24.15625 L 11.375 -10.390625 C 11.375 -9.535156 11.429688 -8.707031 11.546875 -7.90625 C 11.671875 -7.101562 11.9375 -6.441406 12.34375 -5.921875 C 12.75 -5.398438 13.359375 -5.140625 14.171875 -5.140625 C 14.484375 -5.140625 14.820312 -5.1875 15.1875 -5.28125 C 15.5625 -5.375 15.847656 -5.460938 16.046875 -5.546875 Z M 16.046875 -5.546875 "/></g></g></g><g fill="#ffffff" fill-opacity="1"><g transform="translate(189.726243, 175.571277)"><g><path d="M 10.09375 -10.328125 L 10.09375 -2.96875 C 10.09375 -1.957031 9.734375 -1.207031 9.015625 -0.71875 C 8.296875 -0.238281 7.523438 0 6.703125 0 C 5.847656 0 5.082031 -0.238281 4.40625 -0.71875 C 3.726562 -1.207031 3.390625 -1.941406 3.390625 -2.921875 L 3.390625 -34.125 C 3.390625 -35.019531 3.71875 -35.75 4.375 -36.3125 C 5.039062 -36.882812 5.835938 -37.171875 6.765625 -37.171875 L 18.671875 -37.171875 C 21.898438 -37.171875 24.660156 -36.59375 26.953125 -35.4375 C 29.242188 -34.289062 30.992188 -32.695312 32.203125 -30.65625 C 33.410156 -28.613281 34.015625 -26.210938 34.015625 -23.453125 C 34.015625 -19.523438 32.648438 -16.351562 29.921875 -13.9375 C 27.203125 -11.53125 23.394531 -10.328125 18.5 -10.328125 Z M 10.09375 -31.390625 L 10.09375 -16.109375 L 18.5 -16.109375 C 21.375 -16.109375 23.566406 -16.773438 25.078125 -18.109375 C 26.597656 -19.453125 27.359375 -21.234375 27.359375 -23.453125 C 27.359375 -25.867188 26.609375 -27.796875 25.109375 -29.234375 C 23.617188 -30.671875 21.492188 -31.390625 18.734375 -31.390625 Z M 10.09375 -31.390625 "/></g></g></g><g fill="#ffffff" fill-opacity="1"><g transform="translate(224.84852, 175.571277)"><g><path d="M 15.75 -29.703125 C 16.800781 -29.703125 17.632812 -29.476562 18.25 -29.03125 C 18.875 -28.582031 19.1875 -27.851562 19.1875 -26.84375 C 19.1875 -25.90625 18.875 -25.160156 18.25 -24.609375 C 17.632812 -24.066406 16.800781 -23.796875 15.75 -23.796875 C 13.300781 -23.796875 11.582031 -22.921875 10.59375 -21.171875 C 9.601562 -19.421875 9.109375 -17.050781 9.109375 -14.0625 L 9.109375 -2.96875 C 9.109375 -2.113281 8.796875 -1.40625 8.171875 -0.84375 C 7.546875 -0.28125 6.785156 0 5.890625 0 C 4.878906 0 4.0625 -0.28125 3.4375 -0.84375 C 2.820312 -1.40625 2.515625 -2.113281 2.515625 -2.96875 L 2.515625 -26.71875 C 2.515625 -27.65625 2.875 -28.382812 3.59375 -28.90625 C 4.3125 -29.4375 5.078125 -29.703125 5.890625 -29.703125 C 6.710938 -29.703125 7.453125 -29.445312 8.109375 -28.9375 C 8.773438 -28.4375 9.109375 -27.695312 9.109375 -26.71875 L 9.109375 -26.375 C 9.960938 -27.5 10.953125 -28.332031 12.078125 -28.875 C 13.203125 -29.425781 14.425781 -29.703125 15.75 -29.703125 Z M 15.75 -29.703125 "/></g></g></g><g fill="#ffffff" fill-opacity="1"><g transform="translate(242.292663, 175.571277)"><g><path d="M 16.6875 -5.1875 C 17.8125 -5.1875 18.914062 -5.34375 20 -5.65625 C 21.09375 -5.96875 22.109375 -6.492188 23.046875 -7.234375 C 23.941406 -8.046875 24.816406 -8.421875 25.671875 -8.359375 C 26.523438 -8.304688 27.234375 -8 27.796875 -7.4375 C 28.359375 -6.875 28.640625 -6.171875 28.640625 -5.328125 C 28.640625 -4.492188 28.234375 -3.691406 27.421875 -2.921875 C 26.054688 -1.597656 24.441406 -0.671875 22.578125 -0.140625 C 20.710938 0.378906 18.804688 0.617188 16.859375 0.578125 C 13.828125 0.578125 11.15625 -0.0390625 8.84375 -1.28125 C 6.53125 -2.53125 4.71875 -4.257812 3.40625 -6.46875 C 2.101562 -8.6875 1.453125 -11.253906 1.453125 -14.171875 C 1.453125 -17.367188 2.070312 -20.171875 3.3125 -22.578125 C 4.5625 -24.992188 6.320312 -26.878906 8.59375 -28.234375 C 10.875 -29.597656 13.570312 -30.28125 16.6875 -30.28125 C 19.800781 -30.28125 22.445312 -29.644531 24.625 -28.375 C 26.800781 -27.113281 28.460938 -25.34375 29.609375 -23.0625 C 30.753906 -20.789062 31.328125 -18.140625 31.328125 -15.109375 C 31.328125 -14.140625 31.128906 -13.3125 30.734375 -12.625 C 30.347656 -11.945312 29.320312 -11.609375 27.65625 -11.609375 L 8.21875 -11.609375 C 8.769531 -9.703125 9.800781 -8.15625 11.3125 -6.96875 C 12.832031 -5.78125 14.625 -5.1875 16.6875 -5.1875 Z M 16.75 -24.5 C 14.488281 -24.5 12.597656 -23.789062 11.078125 -22.375 C 9.566406 -20.957031 8.597656 -19.097656 8.171875 -16.796875 L 25.140625 -16.796875 C 24.953125 -19.097656 24.195312 -20.957031 22.875 -22.375 C 21.550781 -23.789062 19.507812 -24.5 16.75 -24.5 Z M 16.75 -24.5 "/></g></g></g><g fill="#ffffff" fill-opacity="1"><g transform="translate(276.189735, 175.571277)"><g><path d="M 17.859375 -30.28125 C 20.734375 -30.28125 23.25 -29.644531 25.40625 -28.375 C 27.5625 -27.113281 29.234375 -25.34375 30.421875 -23.0625 C 31.609375 -20.789062 32.203125 -18.160156 32.203125 -15.171875 C 32.203125 -12.054688 31.609375 -9.3125 30.421875 -6.9375 C 29.234375 -4.570312 27.585938 -2.726562 25.484375 -1.40625 C 23.390625 -0.0820312 20.925781 0.578125 18.09375 0.578125 C 16.769531 0.578125 15.328125 0.347656 13.765625 -0.109375 C 12.210938 -0.578125 10.796875 -1.238281 9.515625 -2.09375 L 9.515625 6.828125 C 9.515625 7.796875 9.171875 8.53125 8.484375 9.03125 C 7.804688 9.539062 7.0625 9.796875 6.25 9.796875 C 5.382812 9.796875 4.613281 9.539062 3.9375 9.03125 C 3.257812 8.53125 2.921875 7.796875 2.921875 6.828125 L 2.921875 -26.71875 C 2.921875 -27.65625 3.21875 -28.382812 3.8125 -28.90625 C 4.414062 -29.4375 5.242188 -29.703125 6.296875 -29.703125 C 8.046875 -29.703125 9.078125 -29.019531 9.390625 -27.65625 C 10.753906 -28.625 12.175781 -29.300781 13.65625 -29.6875 C 15.132812 -30.082031 16.535156 -30.28125 17.859375 -30.28125 Z M 17.90625 -5.3125 C 20.207031 -5.3125 22.054688 -6.210938 23.453125 -8.015625 C 24.847656 -9.828125 25.546875 -12.191406 25.546875 -15.109375 C 25.546875 -17.867188 24.796875 -20.101562 23.296875 -21.8125 C 21.804688 -23.53125 19.835938 -24.390625 17.390625 -24.390625 C 15.828125 -24.390625 14.304688 -23.988281 12.828125 -23.1875 C 11.359375 -22.394531 10.253906 -21.257812 9.515625 -19.78125 L 9.515625 -10.09375 C 10.128906 -8.570312 11.234375 -7.394531 12.828125 -6.5625 C 14.429688 -5.726562 16.125 -5.3125 17.90625 -5.3125 Z M 17.90625 -5.3125 "/></g></g></g><g fill="#ffffff" fill-opacity="1"><g transform="translate(37.217561, 223.877815)"><g><path d="M 6.90625 0.171875 C 5.800781 0.171875 4.835938 -0.0195312 4.015625 -0.40625 C 3.191406 -0.800781 2.550781 -1.328125 2.09375 -1.984375 C 1.632812 -2.648438 1.375 -3.382812 1.3125 -4.1875 L 2.453125 -4.1875 C 2.578125 -3.300781 2.988281 -2.507812 3.6875 -1.8125 C 4.394531 -1.125 5.46875 -0.78125 6.90625 -0.78125 C 7.738281 -0.78125 8.46875 -0.929688 9.09375 -1.234375 C 9.71875 -1.546875 10.195312 -1.96875 10.53125 -2.5 C 10.875 -3.03125 11.046875 -3.617188 11.046875 -4.265625 C 11.046875 -5.085938 10.847656 -5.738281 10.453125 -6.21875 C 10.054688 -6.707031 9.5625 -7.070312 8.96875 -7.3125 C 8.382812 -7.550781 7.59375 -7.8125 6.59375 -8.09375 C 5.488281 -8.382812 4.601562 -8.671875 3.9375 -8.953125 C 3.269531 -9.242188 2.703125 -9.691406 2.234375 -10.296875 C 1.773438 -10.910156 1.546875 -11.738281 1.546875 -12.78125 C 1.546875 -13.59375 1.757812 -14.332031 2.1875 -15 C 2.613281 -15.675781 3.222656 -16.207031 4.015625 -16.59375 C 4.804688 -16.976562 5.71875 -17.171875 6.75 -17.171875 C 8.257812 -17.171875 9.472656 -16.796875 10.390625 -16.046875 C 11.304688 -15.304688 11.851562 -14.398438 12.03125 -13.328125 L 10.875 -13.328125 C 10.78125 -13.753906 10.566406 -14.191406 10.234375 -14.640625 C 9.898438 -15.097656 9.429688 -15.476562 8.828125 -15.78125 C 8.222656 -16.082031 7.5 -16.234375 6.65625 -16.234375 C 5.53125 -16.234375 4.578125 -15.921875 3.796875 -15.296875 C 3.023438 -14.671875 2.640625 -13.84375 2.640625 -12.8125 C 2.640625 -11.988281 2.835938 -11.328125 3.234375 -10.828125 C 3.640625 -10.335938 4.140625 -9.96875 4.734375 -9.71875 C 5.328125 -9.46875 6.125 -9.21875 7.125 -8.96875 C 8.238281 -8.65625 9.117188 -8.359375 9.765625 -8.078125 C 10.421875 -7.796875 10.976562 -7.351562 11.4375 -6.75 C 11.90625 -6.144531 12.140625 -5.320312 12.140625 -4.28125 C 12.140625 -3.53125 11.9375 -2.8125 11.53125 -2.125 C 11.125 -1.445312 10.53125 -0.894531 9.75 -0.46875 C 8.96875 -0.0390625 8.019531 0.171875 6.90625 0.171875 Z M 6.90625 0.171875 "/></g></g></g><g fill="#ffffff" fill-opacity="1"><g transform="translate(49.716387, 223.877815)"><g><path d="M 3.609375 -12.203125 L 3.609375 -3.515625 C 3.609375 -2.546875 3.785156 -1.878906 4.140625 -1.515625 C 4.492188 -1.148438 5.125 -0.96875 6.03125 -0.96875 L 7.515625 -0.96875 L 7.515625 0 L 5.859375 0 C 4.710938 0 3.867188 -0.269531 3.328125 -0.8125 C 2.785156 -1.351562 2.515625 -2.253906 2.515625 -3.515625 L 2.515625 -12.203125 L 0.53125 -12.203125 L 0.53125 -13.15625 L 2.515625 -13.15625 L 2.515625 -16.5 L 3.609375 -16.5 L 3.609375 -13.15625 L 7.515625 -13.15625 L 7.515625 -12.203125 Z M 3.609375 -12.203125 "/></g></g></g><g fill="#ffffff" fill-opacity="1"><g transform="translate(57.201053, 223.877815)"><g><path d="M 1.3125 -6.59375 C 1.3125 -7.945312 1.582031 -9.128906 2.125 -10.140625 C 2.664062 -11.160156 3.414062 -11.945312 4.375 -12.5 C 5.332031 -13.050781 6.425781 -13.328125 7.65625 -13.328125 C 9.039062 -13.328125 10.21875 -12.984375 11.1875 -12.296875 C 12.15625 -11.617188 12.832031 -10.757812 13.21875 -9.71875 L 13.21875 -13.15625 L 14.3125 -13.15625 L 14.3125 0 L 13.21875 0 L 13.21875 -3.46875 C 12.832031 -2.394531 12.148438 -1.515625 11.171875 -0.828125 C 10.203125 -0.148438 9.03125 0.1875 7.65625 0.1875 C 6.425781 0.1875 5.332031 -0.0859375 4.375 -0.640625 C 3.414062 -1.203125 2.664062 -1.992188 2.125 -3.015625 C 1.582031 -4.035156 1.3125 -5.226562 1.3125 -6.59375 Z M 13.21875 -6.59375 C 13.21875 -7.738281 12.976562 -8.75 12.5 -9.625 C 12.03125 -10.507812 11.382812 -11.1875 10.5625 -11.65625 C 9.738281 -12.132812 8.816406 -12.375 7.796875 -12.375 C 6.734375 -12.375 5.796875 -12.144531 4.984375 -11.6875 C 4.179688 -11.226562 3.550781 -10.5625 3.09375 -9.6875 C 2.644531 -8.8125 2.421875 -7.78125 2.421875 -6.59375 C 2.421875 -5.394531 2.644531 -4.359375 3.09375 -3.484375 C 3.550781 -2.617188 4.1875 -1.953125 5 -1.484375 C 5.8125 -1.015625 6.742188 -0.78125 7.796875 -0.78125 C 8.816406 -0.78125 9.738281 -1.015625 10.5625 -1.484375 C 11.394531 -1.960938 12.046875 -2.640625 12.515625 -3.515625 C 12.984375 -4.398438 13.21875 -5.425781 13.21875 -6.59375 Z M 13.21875 -6.59375 "/></g></g></g><g fill="#ffffff" fill-opacity="1"><g transform="translate(72.582431, 223.877815)"><g><path d="M 3.078125 -10.4375 C 3.398438 -11.40625 3.972656 -12.144531 4.796875 -12.65625 C 5.617188 -13.164062 6.664062 -13.421875 7.9375 -13.421875 L 7.9375 -12.28125 L 7.578125 -12.28125 C 6.285156 -12.28125 5.210938 -11.910156 4.359375 -11.171875 C 3.503906 -10.441406 3.078125 -9.242188 3.078125 -7.578125 L 3.078125 0 L 1.984375 0 L 1.984375 -13.15625 L 3.078125 -13.15625 Z M 3.078125 -10.4375 "/></g></g></g><g fill="#ffffff" fill-opacity="1"><g transform="translate(80.139761, 223.877815)"><g><path d="M 3.609375 -12.203125 L 3.609375 -3.515625 C 3.609375 -2.546875 3.785156 -1.878906 4.140625 -1.515625 C 4.492188 -1.148438 5.125 -0.96875 6.03125 -0.96875 L 7.515625 -0.96875 L 7.515625 0 L 5.859375 0 C 4.710938 0 3.867188 -0.269531 3.328125 -0.8125 C 2.785156 -1.351562 2.515625 -2.253906 2.515625 -3.515625 L 2.515625 -12.203125 L 0.53125 -12.203125 L 0.53125 -13.15625 L 2.515625 -13.15625 L 2.515625 -16.5 L 3.609375 -16.5 L 3.609375 -13.15625 L 7.515625 -13.15625 L 7.515625 -12.203125 Z M 3.609375 -12.203125 "/></g></g></g><g fill="#ffffff" fill-opacity="1"><g transform="translate(87.635213, 223.877815)"><g/></g></g><g fill="#ffffff" fill-opacity="1"><g transform="translate(93.545384, 223.877815)"><g/></g></g><g fill="#ffffff" fill-opacity="1"><g transform="translate(99.46635, 223.877815)"><g><path d="M 12.46875 -17 L 7.125 -6.875 L 7.125 0 L 6.03125 0 L 6.03125 -6.875 L 0.625 -17 L 1.859375 -17 L 6.5625 -7.890625 L 11.234375 -17 Z M 12.46875 -17 "/></g></g></g><g fill="#ffffff" fill-opacity="1"><g transform="translate(111.650277, 223.877815)"><g><path d="M 7.78125 0.1875 C 6.550781 0.1875 5.441406 -0.0820312 4.453125 -0.625 C 3.472656 -1.175781 2.703125 -1.960938 2.140625 -2.984375 C 1.585938 -4.015625 1.3125 -5.21875 1.3125 -6.59375 C 1.3125 -7.945312 1.59375 -9.132812 2.15625 -10.15625 C 2.71875 -11.1875 3.492188 -11.972656 4.484375 -12.515625 C 5.484375 -13.054688 6.597656 -13.328125 7.828125 -13.328125 C 9.046875 -13.328125 10.148438 -13.054688 11.140625 -12.515625 C 12.128906 -11.972656 12.898438 -11.191406 13.453125 -10.171875 C 14.015625 -9.148438 14.296875 -7.957031 14.296875 -6.59375 C 14.296875 -5.21875 14.007812 -4.015625 13.4375 -2.984375 C 12.875 -1.960938 12.09375 -1.175781 11.09375 -0.625 C 10.101562 -0.0820312 9 0.1875 7.78125 0.1875 Z M 7.78125 -0.78125 C 8.726562 -0.78125 9.617188 -0.992188 10.453125 -1.421875 C 11.285156 -1.847656 11.953125 -2.492188 12.453125 -3.359375 C 12.953125 -4.234375 13.203125 -5.3125 13.203125 -6.59375 C 13.203125 -7.851562 12.953125 -8.914062 12.453125 -9.78125 C 11.953125 -10.65625 11.289062 -11.304688 10.46875 -11.734375 C 9.644531 -12.160156 8.753906 -12.375 7.796875 -12.375 C 6.847656 -12.375 5.960938 -12.160156 5.140625 -11.734375 C 4.328125 -11.304688 3.671875 -10.65625 3.171875 -9.78125 C 2.671875 -8.914062 2.421875 -7.851562 2.421875 -6.59375 C 2.421875 -5.3125 2.664062 -4.234375 3.15625 -3.359375 C 3.65625 -2.492188 4.3125 -1.847656 5.125 -1.421875 C 5.9375 -0.992188 6.820312 -0.78125 7.78125 -0.78125 Z M 7.78125 -0.78125 "/></g></g></g><g fill="#ffffff" fill-opacity="1"><g transform="translate(126.353395, 223.877815)"><g><path d="M 13.109375 -13.15625 L 13.109375 0 L 12.015625 0 L 12.015625 -2.859375 C 11.640625 -1.859375 11.019531 -1.09375 10.15625 -0.5625 C 9.289062 -0.0390625 8.300781 0.21875 7.1875 0.21875 C 5.625 0.21875 4.34375 -0.257812 3.34375 -1.21875 C 2.351562 -2.1875 1.859375 -3.613281 1.859375 -5.5 L 1.859375 -13.15625 L 2.9375 -13.15625 L 2.9375 -5.578125 C 2.9375 -4.003906 3.328125 -2.800781 4.109375 -1.96875 C 4.898438 -1.144531 5.976562 -0.734375 7.34375 -0.734375 C 8.757812 -0.734375 9.890625 -1.179688 10.734375 -2.078125 C 11.585938 -2.984375 12.015625 -4.328125 12.015625 -6.109375 L 12.015625 -13.15625 Z M 13.109375 -13.15625 "/></g></g></g><g fill="#ffffff" fill-opacity="1"><g transform="translate(140.523623, 223.877815)"><g><path d="M 3.078125 -10.4375 C 3.398438 -11.40625 3.972656 -12.144531 4.796875 -12.65625 C 5.617188 -13.164062 6.664062 -13.421875 7.9375 -13.421875 L 7.9375 -12.28125 L 7.578125 -12.28125 C 6.285156 -12.28125 5.210938 -11.910156 4.359375 -11.171875 C 3.503906 -10.441406 3.078125 -9.242188 3.078125 -7.578125 L 3.078125 0 L 1.984375 0 L 1.984375 -13.15625 L 3.078125 -13.15625 Z M 3.078125 -10.4375 "/></g></g></g><g fill="#ffffff" fill-opacity="1"><g transform="translate(148.080951, 223.877815)"><g/></g></g><g fill="#ffffff" fill-opacity="1"><g transform="translate(153.99112, 223.877815)"><g><path d="M 12.28125 -12.203125 C 12.28125 -10.703125 11.8125 -9.535156 10.875 -8.703125 C 9.9375 -7.867188 8.546875 -7.453125 6.703125 -7.453125 L 3.078125 -7.453125 L 3.078125 0 L 1.984375 0 L 1.984375 -17 L 6.703125 -17 C 8.578125 -17 9.972656 -16.566406 10.890625 -15.703125 C 11.816406 -14.835938 12.28125 -13.671875 12.28125 -12.203125 Z M 6.703125 -8.421875 C 9.691406 -8.421875 11.1875 -9.679688 11.1875 -12.203125 C 11.1875 -13.453125 10.832031 -14.398438 10.125 -15.046875 C 9.414062 -15.703125 8.273438 -16.03125 6.703125 -16.03125 L 3.078125 -16.03125 L 3.078125 -8.421875 Z M 6.703125 -8.421875 "/></g></g></g><g fill="#ffffff" fill-opacity="1"><g transform="translate(166.296171, 223.877815)"><g><path d="M 3.078125 -10.4375 C 3.398438 -11.40625 3.972656 -12.144531 4.796875 -12.65625 C 5.617188 -13.164062 6.664062 -13.421875 7.9375 -13.421875 L 7.9375 -12.28125 L 7.578125 -12.28125 C 6.285156 -12.28125 5.210938 -11.910156 4.359375 -11.171875 C 3.503906 -10.441406 3.078125 -9.242188 3.078125 -7.578125 L 3.078125 0 L 1.984375 0 L 1.984375 -13.15625 L 3.078125 -13.15625 Z M 3.078125 -10.4375 "/></g></g></g><g fill="#ffffff" fill-opacity="1"><g transform="translate(173.853499, 223.877815)"><g><path d="M 13.828125 -7.453125 C 13.828125 -6.878906 13.8125 -6.445312 13.78125 -6.15625 L 2.421875 -6.15625 C 2.453125 -4.976562 2.707031 -3.984375 3.1875 -3.171875 C 3.675781 -2.367188 4.316406 -1.765625 5.109375 -1.359375 C 5.898438 -0.953125 6.765625 -0.75 7.703125 -0.75 C 8.992188 -0.75 10.070312 -1.066406 10.9375 -1.703125 C 11.8125 -2.347656 12.363281 -3.21875 12.59375 -4.3125 L 13.734375 -4.3125 C 13.472656 -2.96875 12.804688 -1.878906 11.734375 -1.046875 C 10.671875 -0.222656 9.328125 0.1875 7.703125 0.1875 C 6.472656 0.1875 5.375 -0.0820312 4.40625 -0.625 C 3.4375 -1.175781 2.675781 -1.960938 2.125 -2.984375 C 1.582031 -4.015625 1.3125 -5.21875 1.3125 -6.59375 C 1.3125 -7.957031 1.582031 -9.148438 2.125 -10.171875 C 2.664062 -11.191406 3.421875 -11.972656 4.390625 -12.515625 C 5.359375 -13.054688 6.460938 -13.328125 7.703125 -13.328125 C 8.960938 -13.328125 10.054688 -13.054688 10.984375 -12.515625 C 11.910156 -11.972656 12.613281 -11.253906 13.09375 -10.359375 C 13.582031 -9.460938 13.828125 -8.492188 13.828125 -7.453125 Z M 12.734375 -7.046875 C 12.785156 -8.210938 12.582031 -9.195312 12.125 -10 C 11.664062 -10.8125 11.039062 -11.414062 10.25 -11.8125 C 9.457031 -12.207031 8.597656 -12.40625 7.671875 -12.40625 C 6.753906 -12.40625 5.90625 -12.207031 5.125 -11.8125 C 4.34375 -11.414062 3.703125 -10.8125 3.203125 -10 C 2.710938 -9.195312 2.453125 -8.210938 2.421875 -7.046875 Z M 12.734375 -7.046875 "/></g></g></g><g fill="#ffffff" fill-opacity="1"><g transform="translate(188.072165, 223.877815)"><g><path d="M 3.078125 -9.6875 C 3.453125 -10.75 4.125 -11.617188 5.09375 -12.296875 C 6.070312 -12.984375 7.253906 -13.328125 8.640625 -13.328125 C 9.867188 -13.328125 10.960938 -13.050781 11.921875 -12.5 C 12.890625 -11.945312 13.640625 -11.160156 14.171875 -10.140625 C 14.710938 -9.128906 14.984375 -7.945312 14.984375 -6.59375 C 14.984375 -5.226562 14.710938 -4.035156 14.171875 -3.015625 C 13.640625 -1.992188 12.890625 -1.203125 11.921875 -0.640625 C 10.960938 -0.0859375 9.867188 0.1875 8.640625 0.1875 C 7.273438 0.1875 6.101562 -0.148438 5.125 -0.828125 C 4.144531 -1.515625 3.460938 -2.382812 3.078125 -3.4375 L 3.078125 6.203125 L 1.984375 6.203125 L 1.984375 -13.15625 L 3.078125 -13.15625 Z M 13.875 -6.59375 C 13.875 -7.78125 13.644531 -8.8125 13.1875 -9.6875 C 12.738281 -10.5625 12.109375 -11.226562 11.296875 -11.6875 C 10.484375 -12.144531 9.546875 -12.375 8.484375 -12.375 C 7.460938 -12.375 6.539062 -12.132812 5.71875 -11.65625 C 4.894531 -11.1875 4.25 -10.507812 3.78125 -9.625 C 3.3125 -8.75 3.078125 -7.738281 3.078125 -6.59375 C 3.078125 -5.425781 3.3125 -4.398438 3.78125 -3.515625 C 4.25 -2.640625 4.894531 -1.960938 5.71875 -1.484375 C 6.539062 -1.015625 7.460938 -0.78125 8.484375 -0.78125 C 9.546875 -0.78125 10.484375 -1.015625 11.296875 -1.484375 C 12.109375 -1.953125 12.738281 -2.617188 13.1875 -3.484375 C 13.644531 -4.359375 13.875 -5.394531 13.875 -6.59375 Z M 13.875 -6.59375 "/></g></g></g><g fill="#ffffff" fill-opacity="1"><g transform="translate(203.453541, 223.877815)"><g><path d="M 1.3125 -6.59375 C 1.3125 -7.945312 1.582031 -9.128906 2.125 -10.140625 C 2.664062 -11.160156 3.414062 -11.945312 4.375 -12.5 C 5.332031 -13.050781 6.425781 -13.328125 7.65625 -13.328125 C 9.039062 -13.328125 10.21875 -12.984375 11.1875 -12.296875 C 12.15625 -11.617188 12.832031 -10.757812 13.21875 -9.71875 L 13.21875 -13.15625 L 14.3125 -13.15625 L 14.3125 0 L 13.21875 0 L 13.21875 -3.46875 C 12.832031 -2.394531 12.148438 -1.515625 11.171875 -0.828125 C 10.203125 -0.148438 9.03125 0.1875 7.65625 0.1875 C 6.425781 0.1875 5.332031 -0.0859375 4.375 -0.640625 C 3.414062 -1.203125 2.664062 -1.992188 2.125 -3.015625 C 1.582031 -4.035156 1.3125 -5.226562 1.3125 -6.59375 Z M 13.21875 -6.59375 C 13.21875 -7.738281 12.976562 -8.75 12.5 -9.625 C 12.03125 -10.507812 11.382812 -11.1875 10.5625 -11.65625 C 9.738281 -12.132812 8.816406 -12.375 7.796875 -12.375 C 6.734375 -12.375 5.796875 -12.144531 4.984375 -11.6875 C 4.179688 -11.226562 3.550781 -10.5625 3.09375 -9.6875 C 2.644531 -8.8125 2.421875 -7.78125 2.421875 -6.59375 C 2.421875 -5.394531 2.644531 -4.359375 3.09375 -3.484375 C 3.550781 -2.617188 4.1875 -1.953125 5 -1.484375 C 5.8125 -1.015625 6.742188 -0.78125 7.796875 -0.78125 C 8.816406 -0.78125 9.738281 -1.015625 10.5625 -1.484375 C 11.394531 -1.960938 12.046875 -2.640625 12.515625 -3.515625 C 12.984375 -4.398438 13.21875 -5.425781 13.21875 -6.59375 Z M 13.21875 -6.59375 "/></g></g></g><g fill="#ffffff" fill-opacity="1"><g transform="translate(218.834916, 223.877815)"><g><path d="M 3.078125 -10.4375 C 3.398438 -11.40625 3.972656 -12.144531 4.796875 -12.65625 C 5.617188 -13.164062 6.664062 -13.421875 7.9375 -13.421875 L 7.9375 -12.28125 L 7.578125 -12.28125 C 6.285156 -12.28125 5.210938 -11.910156 4.359375 -11.171875 C 3.503906 -10.441406 3.078125 -9.242188 3.078125 -7.578125 L 3.078125 0 L 1.984375 0 L 1.984375 -13.15625 L 3.078125 -13.15625 Z M 3.078125 -10.4375 "/></g></g></g><g fill="#ffffff" fill-opacity="1"><g transform="translate(226.392244, 223.877815)"><g><path d="M 1.3125 -6.59375 C 1.3125 -7.945312 1.582031 -9.128906 2.125 -10.140625 C 2.664062 -11.160156 3.414062 -11.945312 4.375 -12.5 C 5.332031 -13.050781 6.425781 -13.328125 7.65625 -13.328125 C 9.039062 -13.328125 10.21875 -12.984375 11.1875 -12.296875 C 12.15625 -11.617188 12.832031 -10.757812 13.21875 -9.71875 L 13.21875 -13.15625 L 14.3125 -13.15625 L 14.3125 0 L 13.21875 0 L 13.21875 -3.46875 C 12.832031 -2.394531 12.148438 -1.515625 11.171875 -0.828125 C 10.203125 -0.148438 9.03125 0.1875 7.65625 0.1875 C 6.425781 0.1875 5.332031 -0.0859375 4.375 -0.640625 C 3.414062 -1.203125 2.664062 -1.992188 2.125 -3.015625 C 1.582031 -4.035156 1.3125 -5.226562 1.3125 -6.59375 Z M 13.21875 -6.59375 C 13.21875 -7.738281 12.976562 -8.75 12.5 -9.625 C 12.03125 -10.507812 11.382812 -11.1875 10.5625 -11.65625 C 9.738281 -12.132812 8.816406 -12.375 7.796875 -12.375 C 6.734375 -12.375 5.796875 -12.144531 4.984375 -11.6875 C 4.179688 -11.226562 3.550781 -10.5625 3.09375 -9.6875 C 2.644531 -8.8125 2.421875 -7.78125 2.421875 -6.59375 C 2.421875 -5.394531 2.644531 -4.359375 3.09375 -3.484375 C 3.550781 -2.617188 4.1875 -1.953125 5 -1.484375 C 5.8125 -1.015625 6.742188 -0.78125 7.796875 -0.78125 C 8.816406 -0.78125 9.738281 -1.015625 10.5625 -1.484375 C 11.394531 -1.960938 12.046875 -2.640625 12.515625 -3.515625 C 12.984375 -4.398438 13.21875 -5.425781 13.21875 -6.59375 Z M 13.21875 -6.59375 "/></g></g></g><g fill="#ffffff" fill-opacity="1"><g transform="translate(241.77362, 223.877815)"><g><path d="M 3.609375 -12.203125 L 3.609375 -3.515625 C 3.609375 -2.546875 3.785156 -1.878906 4.140625 -1.515625 C 4.492188 -1.148438 5.125 -0.96875 6.03125 -0.96875 L 7.515625 -0.96875 L 7.515625 0 L 5.859375 0 C 4.710938 0 3.867188 -0.269531 3.328125 -0.8125 C 2.785156 -1.351562 2.515625 -2.253906 2.515625 -3.515625 L 2.515625 -12.203125 L 0.53125 -12.203125 L 0.53125 -13.15625 L 2.515625 -13.15625 L 2.515625 -16.5 L 3.609375 -16.5 L 3.609375 -13.15625 L 7.515625 -13.15625 L 7.515625 -12.203125 Z M 3.609375 -12.203125 "/></g></g></g><g fill="#ffffff" fill-opacity="1"><g transform="translate(249.258283, 223.877815)"><g><path d="M 2.546875 -16.078125 C 2.285156 -16.078125 2.066406 -16.160156 1.890625 -16.328125 C 1.710938 -16.503906 1.625 -16.738281 1.625 -17.03125 C 1.625 -17.300781 1.710938 -17.523438 1.890625 -17.703125 C 2.066406 -17.878906 2.285156 -17.96875 2.546875 -17.96875 C 2.804688 -17.96875 3.023438 -17.878906 3.203125 -17.703125 C 3.378906 -17.523438 3.46875 -17.300781 3.46875 -17.03125 C 3.46875 -16.738281 3.378906 -16.503906 3.203125 -16.328125 C 3.023438 -16.160156 2.804688 -16.078125 2.546875 -16.078125 Z M 3.078125 -13.15625 L 3.078125 0 L 1.984375 0 L 1.984375 -13.15625 Z M 3.078125 -13.15625 "/></g></g></g><g fill="#ffffff" fill-opacity="1"><g transform="translate(253.424388, 223.877815)"><g><path d="M 7.78125 0.1875 C 6.550781 0.1875 5.441406 -0.0820312 4.453125 -0.625 C 3.472656 -1.175781 2.703125 -1.960938 2.140625 -2.984375 C 1.585938 -4.015625 1.3125 -5.21875 1.3125 -6.59375 C 1.3125 -7.945312 1.59375 -9.132812 2.15625 -10.15625 C 2.71875 -11.1875 3.492188 -11.972656 4.484375 -12.515625 C 5.484375 -13.054688 6.597656 -13.328125 7.828125 -13.328125 C 9.046875 -13.328125 10.148438 -13.054688 11.140625 -12.515625 C 12.128906 -11.972656 12.898438 -11.191406 13.453125 -10.171875 C 14.015625 -9.148438 14.296875 -7.957031 14.296875 -6.59375 C 14.296875 -5.21875 14.007812 -4.015625 13.4375 -2.984375 C 12.875 -1.960938 12.09375 -1.175781 11.09375 -0.625 C 10.101562 -0.0820312 9 0.1875 7.78125 0.1875 Z M 7.78125 -0.78125 C 8.726562 -0.78125 9.617188 -0.992188 10.453125 -1.421875 C 11.285156 -1.847656 11.953125 -2.492188 12.453125 -3.359375 C 12.953125 -4.234375 13.203125 -5.3125 13.203125 -6.59375 C 13.203125 -7.851562 12.953125 -8.914062 12.453125 -9.78125 C 11.953125 -10.65625 11.289062 -11.304688 10.46875 -11.734375 C 9.644531 -12.160156 8.753906 -12.375 7.796875 -12.375 C 6.847656 -12.375 5.960938 -12.160156 5.140625 -11.734375 C 4.328125 -11.304688 3.671875 -10.65625 3.171875 -9.78125 C 2.671875 -8.914062 2.421875 -7.851562 2.421875 -6.59375 C 2.421875 -5.3125 2.664062 -4.234375 3.15625 -3.359375 C 3.65625 -2.492188 4.3125 -1.847656 5.125 -1.421875 C 5.9375 -0.992188 6.820312 -0.78125 7.78125 -0.78125 Z M 7.78125 -0.78125 "/></g></g></g><g fill="#ffffff" fill-opacity="1"><g transform="translate(268.127513, 223.877815)"><g><path d="M 7.921875 -13.421875 C 9.484375 -13.421875 10.753906 -12.9375 11.734375 -11.96875 C 12.722656 -11.007812 13.21875 -9.585938 13.21875 -7.703125 L 13.21875 0 L 12.15625 0 L 12.15625 -7.625 C 12.15625 -9.195312 11.757812 -10.394531 10.96875 -11.21875 C 10.175781 -12.050781 9.101562 -12.46875 7.75 -12.46875 C 6.332031 -12.46875 5.195312 -12.015625 4.34375 -11.109375 C 3.5 -10.210938 3.078125 -8.875 3.078125 -7.09375 L 3.078125 0 L 1.984375 0 L 1.984375 -13.15625 L 3.078125 -13.15625 L 3.078125 -10.359375 C 3.453125 -11.347656 4.066406 -12.101562 4.921875 -12.625 C 5.785156 -13.15625 6.785156 -13.421875 7.921875 -13.421875 Z M 7.921875 -13.421875 "/></g></g></g><g fill="#ffffff" fill-opacity="1"><g transform="translate(282.297736, 223.877815)"><g/></g></g><g fill="#ffffff" fill-opacity="1"><g transform="translate(288.207905, 223.877815)"><g><path d="M 14.140625 0 L 13.046875 0 L 3.078125 -15.203125 L 3.078125 0 L 1.984375 0 L 1.984375 -16.984375 L 3.078125 -16.984375 L 13.046875 -1.8125 L 13.046875 -16.984375 L 14.140625 -16.984375 Z M 14.140625 0 "/></g></g></g><g fill="#ffffff" fill-opacity="1"><g transform="translate(303.443932, 223.877815)"><g><path d="M 7.78125 0.1875 C 6.550781 0.1875 5.441406 -0.0820312 4.453125 -0.625 C 3.472656 -1.175781 2.703125 -1.960938 2.140625 -2.984375 C 1.585938 -4.015625 1.3125 -5.21875 1.3125 -6.59375 C 1.3125 -7.945312 1.59375 -9.132812 2.15625 -10.15625 C 2.71875 -11.1875 3.492188 -11.972656 4.484375 -12.515625 C 5.484375 -13.054688 6.597656 -13.328125 7.828125 -13.328125 C 9.046875 -13.328125 10.148438 -13.054688 11.140625 -12.515625 C 12.128906 -11.972656 12.898438 -11.191406 13.453125 -10.171875 C 14.015625 -9.148438 14.296875 -7.957031 14.296875 -6.59375 C 14.296875 -5.21875 14.007812 -4.015625 13.4375 -2.984375 C 12.875 -1.960938 12.09375 -1.175781 11.09375 -0.625 C 10.101562 -0.0820312 9 0.1875 7.78125 0.1875 Z M 7.78125 -0.78125 C 8.726562 -0.78125 9.617188 -0.992188 10.453125 -1.421875 C 11.285156 -1.847656 11.953125 -2.492188 12.453125 -3.359375 C 12.953125 -4.234375 13.203125 -5.3125 13.203125 -6.59375 C 13.203125 -7.851562 12.953125 -8.914062 12.453125 -9.78125 C 11.953125 -10.65625 11.289062 -11.304688 10.46875 -11.734375 C 9.644531 -12.160156 8.753906 -12.375 7.796875 -12.375 C 6.847656 -12.375 5.960938 -12.160156 5.140625 -11.734375 C 4.328125 -11.304688 3.671875 -10.65625 3.171875 -9.78125 C 2.671875 -8.914062 2.421875 -7.851562 2.421875 -6.59375 C 2.421875 -5.3125 2.664062 -4.234375 3.15625 -3.359375 C 3.65625 -2.492188 4.3125 -1.847656 5.125 -1.421875 C 5.9375 -0.992188 6.820312 -0.78125 7.78125 -0.78125 Z M 7.78125 -0.78125 "/></g></g></g><g fill="#ffffff" fill-opacity="1"><g transform="translate(318.147048, 223.877815)"><g><path d="M 19.1875 -13.15625 L 15.046875 0 L 14 0 L 9.8125 -11.65625 L 5.59375 0 L 4.546875 0 L 0.40625 -13.15625 L 1.546875 -13.15625 L 5.09375 -1.234375 L 9.296875 -13.15625 L 10.34375 -13.15625 L 14.53125 -1.28125 L 18.0625 -13.15625 Z M 19.1875 -13.15625 "/></g></g></g></svg>